<svg width="18" height="18" viewBox="0 0 18 18" xmlns="http://www.w3.org/2000/svg" aria-hidden="true">
  <path fill="#1877F2" d="M18 9a9 9 0 1 0-10.406 8.891V11.602H5.316V9h2.278V7.024c0-2.248 1.339-3.49 3.388-3.49.982 0 2.009.175 2.009.175v2.207h-1.131c-1.115 0-1.462.693-1.462 1.403V9h2.488l-.397 2.602h-2.09V17.89A9 9 0 0 0 18 9z"/>
  <path fill="#fff" d="M12.492 11.602 12.889 9H10.4V7.319c0-.71.347-1.403 1.462-1.403h1.131V3.709s-1.027-.175-2.009-.175c-2.049 0-3.388 1.242-3.388 3.49V9H5.316v2.602h2.278v6.289a9.084 9.084 0 0 0 2.811 0v-6.289h2.087z"/>
</svg>
