<?xml version="1.0" encoding="UTF-8"?><svg id="Layer_1" xmlns="http://www.w3.org/2000/svg" width="467.48313" height="480.77159" viewBox="0 0 467.48313 480.77159"><defs><style>.cls-1{fill:#4d7a13;}</style></defs><path class="cls-1" d="M463.22646,191.2459c-6.43766-23.53761-19.93773-45.22592-38.85576-60.69171-34.28147-28.02565-84.38392-34.69141-125.22245-17.57795,34.27222-3.08302,72.41887-5.0632,99.14988,16.60575-51.1738-1.60614-102.34761-3.21227-153.52141-4.81841-2.49399-9.79378-5.00808-19.79924-4.24647-29.87684.76161-10.0776,5.39192-20.42268,14.15727-25.45326,5.55639-3.1889,12.12004-3.95013,18.31861-5.56885,26.13016-6.82374,46.66599-31.24786,48.90231-58.16157-21.51406-3.72881-44.54935,2.50768-61.24376,16.58091-16.69441,14.07323-26.73761,35.72161-26.7018,57.55639-24.5668-21.06641-49.1336-42.13282-73.7004-63.19923,22.75918,7.74252,43.88442,20.25197,61.61534,36.48592-1.84447-19.70359-16.90104-36.41366-34.87803-44.68782S148.5413-.86084,128.79857.50233c3.01138,29.06841,25.18756,55.2008,53.37872,62.90142,9.82557,2.68393,20.54573,3.45358,28.91565,9.25786,15.6449,10.84927,16.08769,33.4041,14.91499,52.40658-53.71072-.3006-107.42928.80268-161.08236,3.30832-2.56205-2.15946.85432-6.00471,3.90397-7.39286,31.82068-14.48417,68.74457-17.4368,102.46263-8.19345-46.62784-25.36403-110.32006-13.46767-144.6487,27.01732C9.47878,160.05047.56059,186.47815.02392,212.86747c-.57381,28.21591,9.23137,50.96976,23.34919,74.57844,24.33234,40.69006,68.93791,67.46406,107.17121,93.46037,39.55021,26.89172,79.73259,56.85086,100.6405,99.86531,17.10218-27.12364,38.69698-51.40724,63.63718-71.56073,30.82412-24.90812,66.37301-43.30661,98.25186-66.84975,31.87885-23.54314,61.06075-54.08556,70.98272-92.45346,4.96825-19.21203,4.39795-39.54671-.83011-58.66175ZM268.21006,30.90993c4.09192-3.2583,29.60059-21.5368,32.83942-16.94458.87378,1.23889.79004,3.97595-1.15656,4.83887-19.86615,8.80658-35.20166,24.14301-45.909,42.98639-1.87439,3.29871-5.44519,5.50818-9.83679,3.96198.85992-13.05103,15.00012-27.62616,24.06293-34.84265ZM245.63808,140.9475c.51092-2.89856,4.64032-3.66184,7.74413-3.55362,46.50108,1.62129,93.00215,3.24258,139.50323,4.86388,9.98302.34806,21.08591,1.1829,27.87959,8.50599,3.81006,4.10696,5.61626,9.67159,6.76993,15.15363,1.52665,7.25433,2.07417,14.94919-.30865,21.96902-2.36476,6.96663-7.42726,12.70853-13.01734,17.49153-7.44644,6.37134-16.25418,11.46752-25.91595,13.10873-12.12373,2.05942-24.41509-1.41383-36.31115-4.52989-18.61565-4.87619-37.58568-9.00109-55.07414-17.0306-24.14041-11.08363-38.7962-29.2139-50.42237-52.54359-.47286-.94886-.94994-1.95459-.8948-3.01332.00757-.14536.02357-.28591.04751-.42176ZM43.67574,282.73154c-1.39023.17278-2.92587-.29154-4.06255-1.16216-5.57764-4.27211-9.28326-14.00607-12.06116-20.22534-3.49236-7.81881-6.21551-15.97978-8.14079-24.32336-3.85013-16.68532-4.50952-34.12227-1.72691-51.02719.17582-1.06812.45621-2.27036,1.39617-2.80726,2.13029-1.21683,3.87921,2.05377,4.40039,4.4511,2.22518,10.23551,9.06538,18.76902,13.43159,28.29022,4.23332,9.23142,6.13022,19.52318,5.46619,29.65724-.27053,4.12861-.76273,8.85598,2.10725,11.83621,6.533-10.48781,8.42142-23.75661,5.07381-35.65063-.62331-2.2146-1.08909-5.2403.98461-6.23667.94477-.45395,2.05919-.23023,3.08351-.00789,13.81424,2.99852,28.04187,4.08622,42.15139,3.22246.03423-2.78026-3.41846-4.03892-6.16904-4.44555-8.81018-1.30242-17.74542-1.9843-26.36106-4.23959s-17.06771-6.26927-22.82161-13.06693c-7.91817-9.35455-9.57819-22.96284-6.25641-34.75991,2.00581-7.12349,6.12733-14.1881,12.89616-17.17981,3.57343-1.5794,7.55917-1.88757,11.45638-2.16259,53.9307-3.80582,108.01878-5.38082,162.07955-4.71961.48783.00597.99751.01751,1.42699.24894,1.30854.70514.92474,2.65962.34,4.02621-7.23649,16.91215-17.45943,32.81792-31.48494,44.72054-14.02552,11.90262-32.09056,19.55719-50.47995,19.09033-9.50166-.24122-19.10368-2.58685-28.40711-.64113,8.8105,1.45392,17.621,2.90783,26.43151,4.36175,1.09238,1.57807-1.21749,3.27733-3.05561,3.82955-18.0995,5.43746-36.08437,11.97385-51.90261,22.31509s-29.45005,24.82733-35.97611,42.56341c-.40683,1.10565-.81487,2.26778-1.67435,3.07354-.59889.56145-1.34818.86996-2.14528.96903ZM91.93473,334.16707c-9.55246-6.89016-18.43502-14.70792-26.48883-23.30197-8.41302-8.97735-18.04441-18.63803-13.8471-31.9709,1.83806-5.83863,5.5869-10.88084,9.63674-15.4707,4.53364-5.13818,9.52887-9.86893,14.90584-14.11664.6241-.49303,1.31423-1.00215,2.10945-1.01665,1.34728-.02456,2.32106,1.44955,2.2945,2.7968s-.74461,2.56862-1.40107,3.7454c-9.94843,17.8337-9.32945,41.07708,1.55405,58.35602-1.47904-7.66085-2.95807-15.32171-4.43711-22.98256-.40891-2.11798-.80975-4.35945-.07651-6.3881s3.0515-3.65013,5.04771-2.83268c-1.0978-11.16518,2.27945-22.70769,9.22255-31.52017,6.9431-8.81248,17.37486-14.79693,28.48694-16.34229-4.52256,8.05622-8.80729,16.35889-11.09325,25.31047s-2.44822,18.69194,1.13696,27.20679c.92673-15.64973,3.70199-31.93111,13.18174-44.41739,10.99108-14.47695,29.10412-21.46559,46.62194-26.3145-4.75561,10.19433-9.51122,20.38865-14.26683,30.58298,11.81898-18.5118,26.62835-35.10981,43.67865-48.95403,1.43191-1.16266,3.81845-2.19576,4.83514-.65677.45611.69044.34255,1.59642.20368,2.41218-5.12678,30.11533-21.77864,58.5119-46.83666,75.9851-11.58099,8.07554-24.73356,13.79088-35.86981,22.46944-11.13626,8.67855-20.4391,21.54842-19.67349,35.6462.09769,1.79882.15266,4.01928-1.41317,4.91007-1.44891.82427-3.23127-.13176-4.60211-1.08022-.97668-.67575-1.94672-1.36109-2.90995-2.05587ZM157.65549,364.25374c.28619,5.68292,1.53998,11.0957.54846,16.92468-2.3822.59436-4.48297-.77991-6.51428-2.20557l-26.42957-18.55011c-13.08209-9.18188-18.10938-19.95892-16.1026-36.28729,1.78723-14.54218,14.9386-23.2951,27.16254-28.98682.91937-.42804,2.85095.11414,3.54913.17493.90302.07855,1.00171,2.79779.42737,3.75983-4.06995,6.8172-11.41101,35.71313-9.55829,44.29791,7.41589-20.32452,7.04919-29.68866,18.16455-49.70587,3.80322-6.84912,9.3327-11.65948,14.79919-17.30884,1.77594-1.83539,4.70428-4.7876,7.30945-2.65784,2.05408,1.67932-.79492,4.82538-1.47192,6.5238-5.51788,13.84271-7.17255,28.13989-9.58636,42.82349-2.81915,17.14899-3.22632,22.75726-2.29767,41.19769ZM196.0499,405.54268c-2.24908,5.1507-20.55414-12.14935-22.66833-15.177-9.01404-12.90845-9.07489-30.82507-7.14447-46.16437.68256-5.42389-.41888-11.20245,1.88751-15.95032,1.28174-.32092,3.56567-.08856,4.37201.39929,1.26495.76532.76813,2.82593.93658,4.53973.74738,7.60498,4.47717,13.90497,7.19135,20.74866l7.75482,19.55371c2.00055,5.04443,9.80499,27.16211,7.67053,32.05029ZM247.25109,433.44077c-3.2731,6.06346-8.19967,11.2454-13.07147,16.20716-.45172.46006-1.01103.95778-1.64794.85752-.43384-.06829-.77092-.40159-1.07507-.7184-5.99817-6.24788-11.65458-12.8236-16.93821-19.6863-5.18733-6.73761-12.49616-14.82673-15.48918-22.85826-2.59104-6.95286-3.20209-15.80009-4.65103-23.15137-1.96189-9.95377-3.5846-19.97436-4.86396-30.03864,16.27516,10.18002,27.46016,28.10378,29.45233,47.19683,3.02367-13.54335-4.31688-27.22858-12.99372-38.05803s-19.15905-20.69149-24.22776-33.60942c-7.22616-18.41633-2.03045-39.22822,4.69887-57.83185.45776-1.2655,1.08443-2.68803,2.37389-3.07318,2.3303-.69605,3.82517,2.38523,4.38732,4.7514,7.28847,30.67851,33.60298,54.90324,37.69804,86.16861,2.87762-17.74515-8.79141-34.1295-14.80022-51.0725-.61743-1.74095-1.05323-3.98929.36142-5.1771,1.57212-1.32002,3.92677-.14675,5.60594,1.03409,7.19648,5.06074,14.39296,10.12148,21.58944,15.18222-6.45947-11.05122-18.07751-17.99302-26.34202-27.76809-12.56409-14.86053-16.47961-36.54971-9.90477-54.86537.45695-1.27293,1.06588-2.64544,2.29539-3.2089,2.74064-1.25598,5.07175,2.3006,6.19993,5.09627,9.97621,24.72133,35.48222,40.06948,47.46852,63.8812-4.20607-16.39602-15.56327-29.82967-25.95687-43.18981s-20.49972-28.2461-21.41213-45.14841c-.59639-11.04807,2.83113-21.88794,6.55996-32.30481,2.89457-8.08626,5.99628-16.09838,9.30107-24.02584.53355-1.27986,1.33297-2.75479,2.71619-2.85182,1.24018-.087,2.20975,1.00357,2.95599,1.99793,25.43,33.88571,39.70704,76.00146,40.12549,118.36596,3.52837-12.9549,3.76133-26.79323.67102-39.85955,3.75401-1.34723,7.46588,1.92913,10.03253,4.98199,6.90462,8.21259,13.20232,17.15942,16.69383,27.30485s3.94303,21.6719-.59823,31.39288c-6.58398,14.09361-21.77007,21.62508-33.30077,32.06642-14.19521,12.85411-23.14436,30.72447-27.96827,49.25721s-5.78983,37.83883-6.03905,56.98747c2.32408-10.98037,4.64816-21.96073,6.97225-32.9411,6.91161,5.32117,8.1819,15.67671,5.27012,23.89905-.59053,1.66755-1.3162,3.26716-2.14888,4.80971ZM278.28977,403.11312c-2.77252-2.23645-.06976-8.03241.71338-10.93176l2.80707-10.39252c2.19476-8.12524,4.43048-15.62561,7.9422-23.25751,1.13422-2.46497.93982-4.09082,4.25537-3.40887,2.14813.44177,3.04065,2.23779,2.2287,4.90149-2.16846,7.11407.33936,19.60724,2.35175,27.24335-.81616,1.53723-18.79572,18.94891-20.29846,15.84583ZM271.40684,404.22023c-.73566,6.92395-5.18762,11.3266-11.02191,15.66602-2.2699,1.68829-3.49371,4.66968-7.19568,3.12964.96582-5.90033-.21631-11.69867-.6192-17.68103-.99841-14.82324.58252-29.15234,6.36322-42.50458,3.09869-7.15723,6.26245-13.80841,11.71075-19.38983,7.74133-7.93048,15.70654-15.29602,25.61414-20.34332.8645-.44037,3.07013.02277,3.14594.6756.88165,7.59625-23.2677,35.93256-27.99725,80.44751ZM353.3679,347.52327c-5.16407,8.08189-13.10015,14.34118-21.29856,19.5165-5.06428,3.19688-10.31557,6.07933-15.44415,9.16898-4.89107,2.94656-9.82337,7.61441-14.82128,9.8601-1.39453-13.72741-1.56006-29.65767,1.55831-43.23289,2.04829-8.91681,5.8291-17.32597,9.58687-25.66768.82831-1.83872,2.87963-4.01078,4.41462-2.70281.41793.35612.62744.8931.81573,1.40889,6.14848,16.84246,6.30483,35.80448.43492,52.74603,5.40639-5.60151,8.55367-13.32449,8.60249-21.10932.0172-2.74304.15724-6.27682,2.75651-7.15339,2.68601-.90582,5.70143,2.12171,8.24553.87163-10.34454-21.81812-16.03503-45.82911-16.58234-69.96912,4.43888-.41149,8.37431,2.66886,11.64387,5.6992,9.02626,8.36584,17.21154,17.96395,22.00351,29.29963s5.8874,24.62139.95887,35.89837c-.81919,1.87438-1.78534,3.6607-2.8749,5.36588ZM379.15458,332.89992l-8.21277,6.33832c-2.76819,2.13641-5.17993,4.68396-8.29517,3.93756-1.71619-4.50226,1.97241-8.10059,2.41852-12.39502,1.85901-17.89557-5.95428-35.2655-17.54346-48.49072-1.05511-1.20404.32062-3.06158.8631-3.65228,1.0155-1.10583,2.64423.21136,4.00146.68091,9.79358,3.38824,17.74414,8.83411,25.5495,15.32294,7.73218,6.42786,14.29639,13.86096,14.6239,24.76282-4.19904,4.59546-8.40735,9.63837-13.40509,13.49548ZM424.21232,286.16066c-1.74146,4.73651-5.57074,8.38873-8.58661,12.26495-3.90356,5.01721-11.52002,15.10498-17.65601,13.73663-1.15356-.25726-.13098-2.62952-.60785-3.77057-9.01123-21.56329-33.41449-29.99158-52.40112-38.83508-24.96814-11.62958-60.91626-39.98151-68.1123-68.58398,2.68103-1.51709,5.66254-.52533,8.19843.67896l17.55841,8.33838c16.84308,7.99872,29.83124,9.89758,44.75873,25.39673,7.68555,7.97992,12.17059,18.09241,16.65509,27.91675,1.68433-8.10883-8.21631-27.34229-13.29468-32.50195-1.58612-1.61151-4.04901-6.34326-1.40588-7.58392,29.77344,5.69586,51.17322,22.3739,52.3244,56.05597,4.19147-1.43591,2.26239-6.54675,2.03192-10.00378-1.16925-17.53601-8.60944-24.77356-5.36279-27.60638,3.66113-3.1944,15.66052,11.26331,17.87482,13.83539,7.40631,8.60315,12.12396,19.51428,8.02545,30.66193ZM448.90478,218.13832c-.15964,17.60859-4.2488,35.19088-12.10518,50.95562-.8334,1.67231-2.13304,3.57597-3.9954,3.42493-1.75739-.14253-2.75252-2.02086-3.47305-3.63008-4.48599-10.01891-10.95267-19.12916-18.84265-26.75416-4.15286-4.01338-8.70184-7.61912-13.56772-10.73064-2.60469-1.66559-13.57006-5.89537-6.75461-9.82469,1.67462-.96547,3.70573-.97634,5.62717-1.1874,8.74635-.96074,17.88656-6.44486,25.71549-2.42871,6.35923,3.26221,8.62319,11.47809,14.49993,15.54575-.87195-7.60987-4.4843-14.87653-10.02463-20.16569-1.08867-1.03931-2.35096-2.24482-2.22108-3.74432.06923-.79927.53671-1.50088.98958-2.1631,5.11862-7.48485,10.23724-14.96969,15.35586-22.45454.7599-1.11119,2.05239-2.36977,3.23235-1.72178.62301.34214.87898,1.0904,1.07648,1.77319,3.10682,10.74038,4.5888,21.9283,4.48747,33.10562Z"/></svg>